<?xml version="1.0" standalone="no"?>
<!DOCTYPE svg PUBLIC "-//W3C//DTD SVG 20010904//EN"
 "http://www.w3.org/TR/2001/REC-SVG-20010904/DTD/svg10.dtd">
<svg version="1.0" xmlns="http://www.w3.org/2000/svg"
 width="285.000000pt" height="100.000000pt" viewBox="0 0 285.000000 100.000000"
 preserveAspectRatio="xMidYMid meet">
<metadata>
Created by potrace 1.16, written by Peter Selinger 2001-2019
</metadata>
<g transform="translate(0.000000,100.000000) scale(0.100000,-0.100000)"
fill="#000000" stroke="none">
<path d="M204 834 c-93 -53 -177 -104 -186 -112 -16 -13 -18 -37 -18 -214 0
-110 4 -207 10 -217 5 -10 90 -64 189 -120 l179 -102 34 17 c71 36 314 177
331 192 14 12 17 32 17 104 0 49 -4 88 -10 88 -5 0 -21 -5 -35 -12 -21 -9 -25
-18 -25 -52 0 -77 -4 -81 -152 -166 -77 -44 -148 -80 -158 -80 -10 0 -81 36
-158 80 -99 57 -141 87 -146 103 -7 29 -8 285 0 314 4 16 48 46 148 103 78 44
150 80 158 80 9 0 78 -35 153 -77 93 -53 140 -86 146 -101 5 -13 9 -50 9 -83
0 -63 6 -69 45 -43 23 15 25 22 25 94 0 61 -4 80 -17 92 -20 17 -353 208 -363
208 -4 0 -83 -43 -176 -96z"/>
<path d="M2480 511 l0 -181 25 0 c24 0 25 2 25 64 l0 64 65 4 c58 3 69 8 98
36 26 27 32 40 32 77 0 37 -6 50 -33 77 -31 32 -36 33 -122 36 l-90 4 0 -181z
m174 114 c26 -27 29 -56 9 -84 -17 -22 -29 -26 -77 -29 l-56 -3 0 66 0 65 54
0 c35 0 60 -5 70 -15z"/>
<path d="M920 500 l0 -180 115 0 115 0 0 25 c0 25 -1 25 -90 25 l-90 0 0 55 0
55 80 0 c79 0 80 0 80 25 0 25 -1 25 -80 25 l-80 0 0 55 0 55 90 0 c83 0 90 1
90 20 0 19 -7 20 -115 20 l-115 0 0 -180z"/>
<path d="M2182 503 c3 -176 3 -178 26 -181 21 -3 22 -1 22 77 0 78 1 81 24 81
18 0 34 -17 74 -80 43 -67 55 -80 78 -80 32 0 31 4 -30 99 -25 39 -46 77 -46
84 0 6 21 43 45 81 46 71 50 89 23 94 -10 2 -34 -26 -67 -78 -42 -66 -57 -81
-74 -78 -20 3 -22 10 -25 81 -3 75 -4 77 -28 77 l-24 0 2 -177z"/>
<path d="M2772 503 c3 -176 3 -178 26 -181 l22 -3 0 180 0 181 -25 0 -25 0 2
-177z"/>
<path d="M1264 600 c-11 -4 -33 -22 -47 -40 -23 -27 -27 -41 -27 -96 0 -59 3
-67 34 -101 34 -37 35 -38 115 -39 l81 -2 0 133 0 134 -37 10 c-45 13 -90 13
-119 1z m104 -129 c3 -82 -2 -91 -55 -91 -48 0 -73 30 -73 85 0 61 26 87 83
83 l42 -3 3 -74z"/>
<path d="M1540 603 c-34 -12 -60 -47 -60 -79 0 -48 27 -74 85 -82 45 -6 50
-10 50 -32 0 -24 -2 -25 -70 -25 -68 0 -70 -1 -70 -25 0 -21 6 -26 44 -33 55
-11 106 -2 132 24 21 21 26 78 9 109 -11 20 -59 40 -97 40 -28 0 -42 28 -22
41 8 6 35 8 61 5 40 -4 50 -2 58 14 14 26 14 27 -21 39 -34 12 -74 13 -99 4z"/>
<path d="M1710 594 c0 -14 74 -250 81 -260 6 -7 2 -30 -8 -58 -16 -41 -16 -48
-3 -56 32 -20 30 -24 129 228 l60 153 -31 -3 c-29 -3 -33 -9 -67 -95 -20 -51
-39 -93 -42 -93 -3 0 -19 43 -34 95 -27 91 -29 95 -57 95 -15 0 -28 -3 -28 -6z"/>
</g>
</svg>
